<mxfile host="app.diagrams.net" modified="2024-04-26T07:13:20.745Z" agent="Mozilla/5.0 (Windows NT 10.0; Win64; x64) AppleWebKit/537.36 (KHTML, like Gecko) Chrome/124.0.0.0 Safari/537.36 Edg/124.0.0.0" version="24.2.3" etag="hFphynH1yWgOWKw_i8j_" type="github">
  <diagram name="第 1 页" id="vMa7qG-7TBo1lf4GtbS1">
    <mxGraphModel>
      <root>
        <mxCell id="0" />
        <mxCell id="1" parent="0" />
      </root>
    </mxGraphModel>
  </diagram>
</mxfile>
